<svg width="69" height="34" viewBox="0 0 69 34" fill="none" xmlns="http://www.w3.org/2000/svg">
<path d="M42.5786 24.8337H22.3242L32.338 33.0029L42.5786 24.8337Z" stroke="white" stroke-width="2" stroke-linecap="round" stroke-linejoin="round"/>
<path d="M4.6875 13.2177H2.87109V6.16296H0.544922V4.65125H7.01367V6.16296H4.6875V13.2177ZM15.3516 13.2177H13.541V9.52039H10.1484V13.2177H8.33203V4.65125H10.1484V8.00867H13.541V4.65125H15.3516V13.2177ZM22.4531 13.2177H17.5195V4.65125H22.4531V6.13953H19.3359V8.02039H22.2363V9.50867H19.3359V11.7177H22.4531V13.2177ZM32.4199 10.8387C32.4199 11.6122 32.1406 12.2216 31.582 12.6669C31.0273 13.1122 30.2539 13.3348 29.2617 13.3348C28.3477 13.3348 27.5391 13.163 26.8359 12.8192V11.1317C27.4141 11.3895 27.9023 11.5712 28.3008 11.6766C28.7031 11.7821 29.0703 11.8348 29.4023 11.8348C29.8008 11.8348 30.1055 11.7587 30.3164 11.6063C30.5312 11.454 30.6387 11.2274 30.6387 10.9266C30.6387 10.7587 30.5918 10.6102 30.498 10.4813C30.4043 10.3485 30.2656 10.2216 30.082 10.1005C29.9023 9.97937 29.5332 9.78601 28.9746 9.52039C28.4512 9.27429 28.0586 9.03796 27.7969 8.8114C27.5352 8.58484 27.3262 8.32117 27.1699 8.02039C27.0137 7.7196 26.9355 7.36804 26.9355 6.9657C26.9355 6.20789 27.1914 5.61218 27.7031 5.17859C28.2188 4.745 28.9297 4.5282 29.8359 4.5282C30.2812 4.5282 30.7051 4.58093 31.1074 4.6864C31.5137 4.79187 31.9375 4.94031 32.3789 5.13171L31.793 6.54382C31.3359 6.35632 30.957 6.22546 30.6562 6.15125C30.3594 6.07703 30.0664 6.03992 29.7773 6.03992C29.4336 6.03992 29.1699 6.12 28.9863 6.28015C28.8027 6.44031 28.7109 6.64929 28.7109 6.9071C28.7109 7.06726 28.748 7.20789 28.8223 7.32898C28.8965 7.44617 29.0137 7.5614 29.1738 7.67468C29.3379 7.78406 29.7227 7.98328 30.3281 8.27234C31.1289 8.65515 31.6777 9.03992 31.9746 9.42664C32.2715 9.80945 32.4199 10.2802 32.4199 10.8387ZM37.2773 13.2177H35.4609V6.16296H33.1348V4.65125H39.6035V6.16296H37.2773V13.2177ZM48.6973 8.92273C48.6973 10.3407 48.3457 11.4305 47.6426 12.1923C46.9395 12.954 45.9316 13.3348 44.6191 13.3348C43.3066 13.3348 42.2988 12.954 41.5957 12.1923C40.8926 11.4305 40.541 10.3368 40.541 8.91101C40.541 7.48523 40.8926 6.39734 41.5957 5.64734C42.3027 4.89343 43.3145 4.51648 44.6309 4.51648C45.9473 4.51648 46.9531 4.89539 47.6484 5.6532C48.3477 6.41101 48.6973 7.50085 48.6973 8.92273ZM42.4453 8.92273C42.4453 9.87976 42.627 10.6005 42.9902 11.0848C43.3535 11.5692 43.8965 11.8114 44.6191 11.8114C46.0684 11.8114 46.793 10.8485 46.793 8.92273C46.793 6.99304 46.0723 6.0282 44.6309 6.0282C43.9082 6.0282 43.3633 6.27234 42.9961 6.76062C42.6289 7.245 42.4453 7.9657 42.4453 8.92273ZM52.2891 8.45398H52.875C53.4492 8.45398 53.873 8.35828 54.1465 8.16687C54.4199 7.97546 54.5566 7.67468 54.5566 7.26453C54.5566 6.85828 54.416 6.56921 54.1348 6.39734C53.8574 6.22546 53.4258 6.13953 52.8398 6.13953H52.2891V8.45398ZM52.2891 9.93054V13.2177H50.4727V4.65125H52.9688C54.1328 4.65125 54.9941 4.86414 55.5527 5.28992C56.1113 5.71179 56.3906 6.35437 56.3906 7.21765C56.3906 7.72156 56.252 8.17078 55.9746 8.56531C55.6973 8.95593 55.3047 9.26257 54.7969 9.48523C56.0859 11.411 56.9258 12.6552 57.3164 13.2177H55.3008L53.2559 9.93054H52.2891ZM61.0605 8.17859L62.8477 4.65125H64.8047L61.9629 9.88367V13.2177H60.1582V9.94226L57.3164 4.65125H59.2852L61.0605 8.17859Z" fill="white"/>
</svg>
